<svg width="20" height="20" viewBox="0 0 20 20" fill="none" xmlns="http://www.w3.org/2000/svg">
<mask id="mask0_163_299" style="mask-type:alpha" maskUnits="userSpaceOnUse" x="0" y="0" width="20" height="20">
<rect width="20" height="20" fill="#D9D9D9"/>
</mask>
<g mask="url(#mask0_163_299)">
<path d="M3.33329 16.6668C2.87496 16.6668 2.4826 16.5036 2.15621 16.1772C1.82982 15.8509 1.66663 15.4585 1.66663 15.0002V5.00016C1.66663 4.54183 1.82982 4.14947 2.15621 3.82308C2.4826 3.49669 2.87496 3.3335 3.33329 3.3335H16.6666C17.125 3.3335 17.5173 3.49669 17.8437 3.82308C18.1701 4.14947 18.3333 4.54183 18.3333 5.00016V15.0002C18.3333 15.4585 18.1701 15.8509 17.8437 16.1772C17.5173 16.5036 17.125 16.6668 16.6666 16.6668H3.33329ZM9.99996 10.8335L3.33329 6.66683V15.0002H16.6666V6.66683L9.99996 10.8335ZM9.99996 9.16683L16.6666 5.00016H3.33329L9.99996 9.16683ZM3.33329 6.66683V5.00016V15.0002V6.66683Z" fill="#2F2F2F"/>
</g>
</svg>
