<?xml version="1.0" standalone="no"?>
<!DOCTYPE svg PUBLIC "-//W3C//DTD SVG 20010904//EN"
 "http://www.w3.org/TR/2001/REC-SVG-20010904/DTD/svg10.dtd">
<svg version="1.0" xmlns="http://www.w3.org/2000/svg"
 width="100.000000pt" height="100.000000pt" viewBox="0 0 100.000000 100.000000"
 preserveAspectRatio="xMidYMid meet">

<g transform="translate(0.000000,100.000000) scale(0.100000,-0.100000)"
fill="#000000" stroke="none">
<path d="M365 879 c-132 -10 -246 -21 -252 -24 -10 -3 -13 -69 -13 -284 l0
-279 80 -98 c44 -54 86 -101 93 -105 7 -5 143 1 302 11 237 16 291 23 306 36
18 16 19 37 19 299 0 210 -3 285 -12 297 -41 50 -224 168 -257 167 -15 -1
-134 -10 -266 -20z m326 -49 c24 -16 57 -40 73 -53 l29 -23 -204 -12 c-112 -7
-230 -15 -261 -19 l-57 -5 -53 50 c-51 49 -52 51 -28 56 20 4 212 19 436 35
11 0 40 -12 65 -29z m-453 -389 l-3 -253 -47 59 -48 58 0 245 0 245 50 -50 50
-51 -2 -253z m620 5 c1 -154 -2 -274 -7 -279 -10 -10 -550 -49 -563 -41 -13 8
-10 542 3 550 12 7 492 43 539 40 l25 -1 3 -269z"/>
<path d="M663 610 c-28 -12 -30 -30 -3 -30 19 0 20 -7 20 -107 l0 -108 -76
118 -76 117 -62 0 c-57 0 -86 -11 -86 -32 0 -4 9 -8 20 -8 19 0 20 -7 20 -154
0 -148 -1 -154 -22 -169 -22 -15 -20 -16 43 -16 47 -1 70 3 79 14 10 12 7 15
-14 21 -26 6 -26 6 -26 116 0 60 4 107 9 104 5 -3 41 -58 82 -122 40 -64 82
-120 94 -126 13 -6 30 -6 48 1 l27 11 0 174 c0 145 2 175 15 180 8 3 15 10 15
16 0 12 -76 12 -107 0z"/>
</g>
</svg>
